<svg width="24" height="24" viewBox="0 0 24 24" fill="none" xmlns="http://www.w3.org/2000/svg">
<g clip-path="url(#clip0_719_203)">
<path d="M12 24C18.6274 24 24 18.6274 24 12C24 5.37258 18.6274 0 12 0C5.37258 0 0 5.37258 0 12C0 18.6274 5.37258 24 12 24Z" fill="#F0F0F0"/>
<path d="M2.74316 4.36369H21.2573C20.5735 3.53564 19.7804 2.80134 18.9006 2.18188H5.0999C4.2201 2.80125 3.42702 3.53559 2.74316 4.36369Z" fill="#F0F0F0"/>
<path d="M0 12.0001C0 12.3679 0.0174844 12.7315 0.049875 13.091H23.9501C23.9825 12.7315 24 12.3679 24 12.0001C24 11.6322 23.9825 11.2686 23.9501 10.9092H0.049875C0.0174844 11.2686 0 11.6322 0 12.0001H0Z" fill="#F0F0F0"/>
<path d="M1.30884 17.4545H22.6917C23.0451 16.7632 23.3332 16.0333 23.5484 15.2727H0.452148C0.667258 16.0333 0.955539 16.7633 1.30884 17.4545Z" fill="#F0F0F0"/>
<path d="M5.0999 21.8183H18.9005C19.7803 21.1988 20.5734 20.4645 21.2572 19.6365H2.74316C3.42702 20.4644 4.2201 21.1988 5.0999 21.8183Z" fill="#F0F0F0"/>
<path d="M0.452148 8.72721H23.5485C23.3333 7.96652 23.0451 7.23658 22.6918 6.54541H1.30888C0.955586 7.23658 0.667305 7.96652 0.452148 8.72721Z" fill="#F0F0F0"/>
<path d="M5.73926 2.1818H18.9004C16.9486 0.807516 14.5687 0 12.0001 0C10.4349 0 7.69113 0.807516 5.73926 2.1818Z" fill="#D80027"/>
<path d="M11.4785 6.54557H22.6917C22.2926 5.76496 21.8107 5.03376 21.2573 4.36377H11.4785V6.54557Z" fill="#D80027"/>
<path d="M11.4785 10.9091H23.9504C23.8829 10.1599 23.7472 9.43037 23.5484 8.72729H11.4785V10.9091Z" fill="#D80027"/>
<path d="M0.451805 15.2729H23.5481C23.7469 14.5698 23.8826 13.8402 23.9501 13.0911H0.0498047C0.117305 13.8402 0.252961 14.5698 0.451805 15.2729Z" fill="#D80027"/>
<path d="M2.74297 19.6364H21.2571C21.8105 18.9663 22.2924 18.2352 22.6915 17.4546H1.30859C1.70764 18.2352 2.18961 18.9664 2.74297 19.6364Z" fill="#D80027"/>
<path d="M11.9999 23.9999C14.5685 23.9999 16.9484 23.1924 18.9003 21.8181H5.09961C7.05148 23.1924 9.43133 23.9999 11.9999 23.9999Z" fill="#D80027"/>
<path d="M0.451758 8.72728C0.252914 9.43041 0.117305 10.1599 0.0498047 10.9091H11.9999V0C6.50712 0 1.87638 3.69056 0.451758 8.72728Z" fill="#0052B4"/>
<path d="M7.14308 3.13037L7.92003 5.5217H10.4347L8.40041 6.99976L9.17731 9.39123L7.14308 7.91326L5.10875 9.39123L5.88584 6.99976L3.85156 5.5217H6.36608L7.14308 3.13037Z" fill="#F0F0F0"/>
</g>
<defs>
<clipPath id="clip0_719_203">
<rect width="24" height="24" fill="white"/>
</clipPath>
</defs>
</svg>
