<svg width="130" height="20" viewBox="0 0 130 20" fill="none" xmlns="http://www.w3.org/2000/svg">
<path d="M10.1391 16.638C8.22121 16.638 6.60429 16.009 5.31614 14.7224C4.028 13.4359 3.39824 11.8213 3.39824 9.87886C3.39824 7.93555 4.028 6.32185 5.31614 5.03529C6.60429 3.74873 8.22121 3.0928 10.1391 3.0928C12.2492 3.0928 14.0027 3.85886 15.3735 5.41873L17.7028 3.42076C15.7023 1.1495 13.1808 0 10.1391 0C7.31665 0 4.90476 0.930043 2.93206 2.81868C0.986349 4.70569 0 7.06099 0 9.87804C0 12.6967 0.986349 15.0504 2.93206 16.9382C4.90476 18.7991 7.31665 19.73 10.1391 19.73C13.126 19.73 15.8666 18.4434 17.7297 16.2545L15.4283 14.2558C14.0853 15.8434 12.304 16.6372 10.1391 16.6372" fill="#171616"/>
<path d="M126.417 16.8403C126.418 16.681 126.481 16.5284 126.594 16.4159C126.707 16.3035 126.86 16.2404 127.02 16.2407C127.18 16.2409 127.333 16.3043 127.446 16.4171C127.558 16.5299 127.621 16.6827 127.621 16.8419C127.621 17.0013 127.557 17.154 127.444 17.2666C127.331 17.3791 127.178 17.4422 127.018 17.442C126.858 17.4417 126.705 17.3782 126.592 17.2654C126.48 17.1526 126.416 16.9996 126.417 16.8403H126.417ZM125.362 16.217L123.81 16.6363C123.802 16.7718 123.803 16.9088 123.812 17.0475L125.362 17.466C125.482 17.4987 125.545 17.6292 125.496 17.7418L124.858 19.2111C124.96 19.3033 125.069 19.3881 125.182 19.4664L126.477 18.5201C126.501 18.503 126.528 18.4912 126.556 18.4854C126.585 18.4795 126.614 18.4799 126.642 18.4864C126.671 18.4929 126.697 18.5054 126.72 18.523C126.744 18.5406 126.763 18.563 126.776 18.5886L127.531 20C127.599 19.9894 127.667 19.9796 127.736 19.9641C127.804 19.9494 127.868 19.9282 127.935 19.9086L128 18.3112C128.001 18.2822 128.008 18.2538 128.022 18.2279C128.035 18.202 128.053 18.1793 128.076 18.1612C128.099 18.1431 128.125 18.13 128.153 18.123C128.182 18.1159 128.211 18.115 128.24 18.1203L129.818 18.4124C129.886 18.2925 129.947 18.1701 130 18.0428L128.784 16.9937C128.762 16.9747 128.745 16.9512 128.733 16.9248C128.72 16.8984 128.714 16.8697 128.714 16.8407C128.714 16.8117 128.72 16.783 128.733 16.7566C128.745 16.7302 128.762 16.7067 128.784 16.6877L129.998 15.6402C129.947 15.5129 129.888 15.3889 129.821 15.269L128.24 15.5619C128.211 15.5672 128.182 15.5663 128.153 15.5592C128.125 15.5522 128.099 15.5392 128.076 15.521C128.053 15.5029 128.035 15.4802 128.022 15.4543C128.008 15.4284 128.001 15.4 128 15.371L127.935 13.772C127.803 13.7324 127.668 13.7013 127.532 13.679L126.777 15.0928C126.764 15.1185 126.744 15.141 126.721 15.1587C126.698 15.1764 126.671 15.189 126.643 15.1955C126.614 15.202 126.585 15.2023 126.556 15.1964C126.528 15.1905 126.501 15.1785 126.477 15.1613L125.179 14.2141C125.066 14.2925 124.958 14.3789 124.858 14.4703L125.496 15.9404C125.507 15.9671 125.513 15.9959 125.512 16.0249C125.512 16.054 125.505 16.0826 125.492 16.1087C125.48 16.1349 125.461 16.158 125.439 16.1766C125.417 16.1951 125.39 16.2086 125.362 16.2162" fill="#171616"/>
<path d="M34.715 14.7502C33.4268 16.0359 31.8377 16.6926 29.9468 16.6926C28.0559 16.6926 26.4389 16.0359 25.1516 14.7502C23.8635 13.4636 23.2329 11.8491 23.2329 9.90578C23.2329 7.99103 23.8635 6.37651 25.1516 5.06303C26.4389 3.74954 28.0559 3.0928 29.9468 3.0928C31.8377 3.0928 33.4268 3.74954 34.715 5.06303C36.0031 6.37651 36.6607 7.99103 36.6607 9.90578C36.6607 11.8213 36.0031 13.4359 34.7141 14.7502H34.715ZM29.9476 0C27.1251 0 24.741 0.957782 22.7953 2.87334C20.8496 4.76117 19.8633 7.11565 19.8633 9.90578C19.8633 12.6975 20.8496 15.0512 22.7953 16.939C24.741 18.8269 27.1251 19.7846 29.9476 19.7846C32.7701 19.7846 35.182 18.8269 37.1268 16.939C39.0734 15.0512 40.0589 12.6967 40.0589 9.90659C40.0589 7.11483 39.0726 4.76117 37.0999 2.87416C35.1541 0.956966 32.7701 0 29.9476 0Z" fill="#171616"/>
<path d="M60.5692 13.4874L56.2942 0.528809H53.3098L49.0348 13.4874L44.4613 0.528809H40.8945L47.4702 19.2928H50.5576L54.7975 6.38645L59.0119 19.2928H62.1264L68.702 0.528809H65.1435L60.5692 13.4874ZM79.372 16.2506H75.4634V10.9208H79.3442C81.1312 10.9208 82.4152 12.0507 82.4152 13.5584C82.4152 15.093 81.1312 16.2506 79.3728 16.2506H79.372ZM75.4634 3.57185H78.5631C80.014 3.57185 81.0478 4.51413 81.0478 5.77947C81.0478 7.15251 80.014 8.09479 78.5345 8.09479H75.4634V3.57185ZM81.9687 9.09092C83.5325 8.52555 84.4534 7.12559 84.4534 5.3218C84.4534 3.94876 83.9234 2.7911 82.8618 1.90348C81.8288 0.985672 80.5448 0.528809 79.0096 0.528809H71.9735V19.2928H79.9584C81.662 19.2928 83.0581 18.7813 84.1745 17.7313C85.3195 16.6814 85.8773 15.3353 85.8773 13.7468C85.8773 11.3508 84.4534 9.52086 81.9679 9.0901L81.9687 9.09092Z" fill="#171616"/>
<path d="M103.35 14.7502C102.061 16.0359 100.472 16.6926 98.5814 16.6926C96.6905 16.6926 95.0735 16.0359 93.7862 14.7502C92.4981 13.4636 91.8675 11.8491 91.8675 9.90578C91.8675 7.99103 92.4981 6.37651 93.7862 5.06303C95.0735 3.74954 96.6905 3.0928 98.5814 3.0928C100.472 3.0928 102.061 3.74954 103.35 5.06303C104.638 6.37651 105.295 7.99103 105.295 9.90578C105.295 11.8213 104.638 13.4359 103.349 14.7502H103.35ZM98.5822 0C95.7589 0 93.3757 0.957782 91.4291 2.87334C89.4834 4.76117 88.4971 7.11565 88.4971 9.90578C88.4971 12.6975 89.4834 15.0512 91.4291 16.939C93.3748 18.8269 95.7589 19.7846 98.5814 19.7846C101.404 19.7846 103.816 18.8269 105.761 16.939C107.707 15.0512 108.693 12.6967 108.693 9.90659C108.693 7.11483 107.707 4.76117 105.733 2.87416C103.788 0.956966 101.404 0 98.5814 0" fill="#171616"/>
<path d="M123.756 0.528809L118.163 9.78029L112.548 0.528809H108.776L116.244 12.754L112.29 19.2928H116.128L119.917 13.0877L127.587 0.528809H123.756Z" fill="#171616"/>
</svg>
