<svg width="52" height="36" viewBox="0 0 52 36" fill="none" xmlns="http://www.w3.org/2000/svg">
<path d="M0 23.4523C0 20.166 0.866667 17.0788 2.6 14.1909C4.33333 11.3029 6.68571 8.6639 9.65714 6.27386C12.7524 3.78423 16.281 1.69295 20.2429 0L23.5857 3.43569C20.4905 5.42738 17.8286 7.61825 15.6 10.0083C13.3714 12.2988 12.2571 14.639 12.2571 17.0291C12.2571 18.4232 12.5667 19.3693 13.1857 19.8672C13.8048 20.3651 14.6095 20.8631 15.6 21.361C16.9619 21.9585 18.2 22.805 19.3143 23.9004C20.4286 24.9959 20.9857 26.4896 20.9857 28.3817C20.9857 30.473 20.1191 32.2656 18.3857 33.7593C16.6524 35.2531 14.4238 36 11.7 36C8.48095 36 5.69524 34.9544 3.34286 32.8631C1.11429 30.7718 0 27.6349 0 23.4523ZM28.4143 23.4523C28.4143 20.166 29.281 17.0788 31.0143 14.1909C32.7476 11.3029 35.1 8.6639 38.0714 6.27386C41.1667 3.78423 44.6952 1.69295 48.6571 0L52 3.43569C48.9048 5.42738 46.2429 7.61825 44.0143 10.0083C41.7857 12.2988 40.6714 14.639 40.6714 17.0291C40.6714 18.4232 40.981 19.3693 41.6 19.8672C42.219 20.3651 43.0238 20.8631 44.0143 21.361C45.3762 21.9585 46.6143 22.805 47.7286 23.9004C48.8429 24.9959 49.4 26.4896 49.4 28.3817C49.4 30.473 48.5333 32.2656 46.8 33.7593C45.0667 35.2531 42.8381 36 40.1143 36C36.8952 36 34.1095 34.9544 31.7571 32.8631C29.5286 30.7718 28.4143 27.6349 28.4143 23.4523Z" fill="#171616"/>
</svg>
